<svg xmlns="http://www.w3.org/2000/svg" version="1.1" xmlns:xlink="http://www.w3.org/1999/xlink" xmlns:svgjs="http://svgjs.com/svgjs" width="1440" height="560" preserveAspectRatio="none" viewBox="0 0 1440 560"><g mask="url(&quot;#SvgjsMask1002&quot;)" fill="none"><rect width="1440" height="560" x="0" y="0" fill="rgba(0, 0, 0, 1)"></rect><path d="M376.41 589.47L463.02 639.47L463.02 739.47L376.41 789.47L289.81 739.47L289.81 639.47zM896.04 289.47L982.65 339.47L982.65 439.47L896.04 489.47L809.44 439.47L809.44 339.47zM982.65 439.47L1069.25 489.47L1069.25 589.47L982.65 639.47L896.04 589.47L896.04 489.47zM1242.46 -10.53L1329.07 39.47L1329.07 139.47L1242.46 189.47L1155.86 139.47L1155.86 39.47zM1415.67 589.47L1502.28 639.47L1502.28 739.47L1415.67 789.47L1329.07 739.47L1329.07 639.47z" stroke="rgba(132, 182, 244, 0.49)" stroke-width="2"></path><path d="M366.41 589.47 a10 10 0 1 0 20 0 a10 10 0 1 0 -20 0zM453.02 639.47 a10 10 0 1 0 20 0 a10 10 0 1 0 -20 0zM453.02 739.47 a10 10 0 1 0 20 0 a10 10 0 1 0 -20 0zM366.41 789.47 a10 10 0 1 0 20 0 a10 10 0 1 0 -20 0zM279.81 739.47 a10 10 0 1 0 20 0 a10 10 0 1 0 -20 0zM279.81 639.47 a10 10 0 1 0 20 0 a10 10 0 1 0 -20 0zM886.04 289.47 a10 10 0 1 0 20 0 a10 10 0 1 0 -20 0zM972.65 339.47 a10 10 0 1 0 20 0 a10 10 0 1 0 -20 0zM972.65 439.47 a10 10 0 1 0 20 0 a10 10 0 1 0 -20 0zM886.04 489.47 a10 10 0 1 0 20 0 a10 10 0 1 0 -20 0zM799.44 439.47 a10 10 0 1 0 20 0 a10 10 0 1 0 -20 0zM799.44 339.47 a10 10 0 1 0 20 0 a10 10 0 1 0 -20 0zM1059.25 489.47 a10 10 0 1 0 20 0 a10 10 0 1 0 -20 0zM1059.25 589.47 a10 10 0 1 0 20 0 a10 10 0 1 0 -20 0zM972.65 639.47 a10 10 0 1 0 20 0 a10 10 0 1 0 -20 0zM886.04 589.47 a10 10 0 1 0 20 0 a10 10 0 1 0 -20 0zM1232.46 -10.53 a10 10 0 1 0 20 0 a10 10 0 1 0 -20 0zM1319.07 39.47 a10 10 0 1 0 20 0 a10 10 0 1 0 -20 0zM1319.07 139.47 a10 10 0 1 0 20 0 a10 10 0 1 0 -20 0zM1232.46 189.47 a10 10 0 1 0 20 0 a10 10 0 1 0 -20 0zM1145.86 139.47 a10 10 0 1 0 20 0 a10 10 0 1 0 -20 0zM1145.86 39.47 a10 10 0 1 0 20 0 a10 10 0 1 0 -20 0zM1405.67 589.47 a10 10 0 1 0 20 0 a10 10 0 1 0 -20 0zM1492.28 639.47 a10 10 0 1 0 20 0 a10 10 0 1 0 -20 0zM1492.28 739.47 a10 10 0 1 0 20 0 a10 10 0 1 0 -20 0zM1405.67 789.47 a10 10 0 1 0 20 0 a10 10 0 1 0 -20 0zM1319.07 739.47 a10 10 0 1 0 20 0 a10 10 0 1 0 -20 0zM1319.07 639.47 a10 10 0 1 0 20 0 a10 10 0 1 0 -20 0z" fill="rgba(132, 182, 244, 0.49)"></path><path d="M123.92 472.84L219.18 527.84L219.18 637.84L123.92 692.84L28.65 637.84L28.65 527.84zM219.18 307.84L314.45 362.84L314.45 472.84L219.18 527.84L123.92 472.84L123.92 362.84zM409.71 -22.16L504.98 32.84L504.98 142.84L409.71 197.84L314.45 142.84L314.45 32.84zM695.51 472.84L790.77 527.84L790.77 637.84L695.51 692.84L600.24 637.84L600.24 527.84zM1362.37 -22.16L1457.63 32.84L1457.63 142.84L1362.37 197.84L1267.1 142.84L1267.1 32.84z" stroke="rgba(119, 221, 119, 0.76)" stroke-width="2"></path><path d="M112.92 472.84 a11 11 0 1 0 22 0 a11 11 0 1 0 -22 0zM208.18 527.84 a11 11 0 1 0 22 0 a11 11 0 1 0 -22 0zM208.18 637.84 a11 11 0 1 0 22 0 a11 11 0 1 0 -22 0zM112.92 692.84 a11 11 0 1 0 22 0 a11 11 0 1 0 -22 0zM17.65 637.84 a11 11 0 1 0 22 0 a11 11 0 1 0 -22 0zM17.65 527.84 a11 11 0 1 0 22 0 a11 11 0 1 0 -22 0zM208.18 307.84 a11 11 0 1 0 22 0 a11 11 0 1 0 -22 0zM303.45 362.84 a11 11 0 1 0 22 0 a11 11 0 1 0 -22 0zM303.45 472.84 a11 11 0 1 0 22 0 a11 11 0 1 0 -22 0zM112.92 362.84 a11 11 0 1 0 22 0 a11 11 0 1 0 -22 0zM398.71 -22.16 a11 11 0 1 0 22 0 a11 11 0 1 0 -22 0zM493.98 32.84 a11 11 0 1 0 22 0 a11 11 0 1 0 -22 0zM493.98 142.84 a11 11 0 1 0 22 0 a11 11 0 1 0 -22 0zM398.71 197.84 a11 11 0 1 0 22 0 a11 11 0 1 0 -22 0zM303.45 142.84 a11 11 0 1 0 22 0 a11 11 0 1 0 -22 0zM303.45 32.84 a11 11 0 1 0 22 0 a11 11 0 1 0 -22 0zM684.51 472.84 a11 11 0 1 0 22 0 a11 11 0 1 0 -22 0zM779.77 527.84 a11 11 0 1 0 22 0 a11 11 0 1 0 -22 0zM779.77 637.84 a11 11 0 1 0 22 0 a11 11 0 1 0 -22 0zM684.51 692.84 a11 11 0 1 0 22 0 a11 11 0 1 0 -22 0zM589.24 637.84 a11 11 0 1 0 22 0 a11 11 0 1 0 -22 0zM589.24 527.84 a11 11 0 1 0 22 0 a11 11 0 1 0 -22 0zM1351.37 -22.16 a11 11 0 1 0 22 0 a11 11 0 1 0 -22 0zM1446.63 32.84 a11 11 0 1 0 22 0 a11 11 0 1 0 -22 0zM1446.63 142.84 a11 11 0 1 0 22 0 a11 11 0 1 0 -22 0zM1351.37 197.84 a11 11 0 1 0 22 0 a11 11 0 1 0 -22 0zM1256.1 142.84 a11 11 0 1 0 22 0 a11 11 0 1 0 -22 0zM1256.1 32.84 a11 11 0 1 0 22 0 a11 11 0 1 0 -22 0z" fill="rgba(119, 221, 119, 0.76)"></path><path d="M192.38 -189.2L365.59 -89.2L365.59 110.8L192.38 210.8L19.17 110.8L19.17 -89.2zM365.59 110.8L538.8 210.8L538.8 410.8L365.59 510.8L192.38 410.8L192.38 210.8zM538.8 -189.2L712.01 -89.2L712.01 110.8L538.8 210.8L365.59 110.8L365.59 -89.2zM712.01 110.8L885.22 210.8L885.22 410.8L712.01 510.8L538.8 410.8L538.8 210.8zM1578.06 -189.2L1751.27 -89.2L1751.27 110.8L1578.06 210.8L1404.85 110.8L1404.85 -89.2zM1578.06 410.8L1751.27 510.8L1751.27 710.8L1578.06 810.8L1404.85 710.8L1404.85 510.8z" stroke="rgba(255, 105, 97, 0.31)" stroke-width="2"></path></g><defs><mask id="SvgjsMask1002"><rect width="1440" height="560" fill="#ffffff"></rect></mask></defs></svg>